<?xml version="1.0" standalone="no"?>
<!DOCTYPE svg PUBLIC "-//W3C//DTD SVG 20010904//EN"
 "http://www.w3.org/TR/2001/REC-SVG-20010904/DTD/svg10.dtd">
<svg version="1.0" xmlns="http://www.w3.org/2000/svg"
 width="700.000000pt" height="700.000000pt" viewBox="0 0 700.000000 700.000000"
 preserveAspectRatio="xMidYMid meet">
<metadata>
Created by potrace 1.14, written by Peter Selinger 2001-2017
</metadata>
<g transform="translate(0.000000,700.000000) scale(0.100000,-0.100000)"
fill="#000000" stroke="none">
<path d="M3227 6984 c-1 -1 -64 -5 -139 -8 -76 -4 -146 -9 -156 -11 -10 -1
-48 -6 -84 -9 -37 -4 -75 -8 -85 -10 -10 -2 -38 -7 -63 -10 -181 -25 -398 -87
-545 -155 -394 -184 -554 -480 -525 -976 2 -33 7 -73 11 -90 4 -16 10 -43 13
-60 14 -87 74 -259 131 -374 14 -29 25 -54 23 -55 -266 -185 -539 -470 -735
-768 -178 -269 -335 -635 -398 -928 -11 -51 -45 -232 -49 -265 -27 -205 -28
-620 -1 -765 2 -14 7 -41 9 -60 10 -76 18 -116 26 -130 7 -12 52 -14 284 -15
178 0 276 4 276 10 0 6 -5 28 -10 50 -5 22 -11 56 -15 75 -3 19 -10 58 -15 85
-19 102 -22 144 -25 325 -3 176 0 225 26 400 11 79 60 287 84 355 74 217 176
428 280 580 134 197 291 367 491 533 46 38 243 171 294 198 19 10 42 24 50 29
29 21 219 106 316 141 88 31 242 75 313 89 243 47 448 60 676 41 91 -7 111 -9
175 -20 19 -4 51 -9 70 -12 260 -44 629 -194 854 -347 21 -15 44 -28 50 -28
54 -6 806 -2 806 4 0 10 -207 216 -275 274 -27 24 -82 66 -122 95 -39 29 -72
58 -72 64 -1 6 14 42 33 80 146 301 184 638 103 929 -78 280 -297 482 -652
601 -101 34 -272 75 -368 89 -27 3 -57 8 -67 10 -36 7 -190 21 -330 31 -84 6
-657 13 -663 8z m663 -628 c105 -8 173 -15 223 -22 20 -3 47 -7 60 -9 246 -30
483 -127 524 -215 42 -89 42 -258 0 -396 -21 -66 -58 -156 -73 -173 -1 -1 -45
13 -96 33 -92 35 -242 84 -280 91 -11 2 -28 7 -38 10 -10 3 -27 8 -37 10 -104
23 -173 37 -198 40 -16 2 -46 7 -65 10 -172 28 -487 38 -660 21 -143 -13 -166
-17 -275 -37 -201 -37 -442 -107 -579 -167 l-45 -20 -22 46 c-60 129 -84 234
-83 368 2 175 51 234 259 312 116 44 368 84 605 98 63 3 116 7 117 8 6 5 587
-2 663 -8z"/>
<path d="M3500 4353 c-124 -21 -248 -88 -337 -182 -23 -24 -190 -233 -260
-325 l-31 -41 1686 1 c1653 1 1688 2 1752 21 102 32 206 93 264 157 25 28 280
347 290 364 6 10 -326 12 -1666 11 -920 -1 -1684 -4 -1698 -6z"/>
<path d="M2670 3384 c-80 -17 -170 -61 -234 -116 -27 -23 -91 -96 -143 -161
-53 -66 -101 -127 -109 -136 -7 -9 -63 -79 -124 -156 -123 -157 -146 -205
-137 -290 10 -96 61 -166 152 -206 49 -22 60 -22 443 -24 215 0 392 2 392 5 0
4 -63 69 -141 146 -77 76 -145 147 -151 158 -22 40 -20 72 9 107 50 60 126
129 142 130 9 0 457 2 996 3 707 2 993 6 1027 14 96 24 197 79 274 149 25 23
255 307 302 373 13 18 -21 19 -1310 18 -1072 0 -1335 -3 -1388 -14z"/>
<path d="M5808 3394 c-3 -2 1 -33 8 -68 7 -34 16 -85 19 -112 4 -27 9 -60 12
-74 9 -45 11 -413 2 -485 -19 -159 -21 -173 -34 -235 -17 -78 -13 -62 -40
-165 -58 -218 -170 -464 -303 -665 -158 -240 -338 -426 -603 -623 -96 -71
-336 -205 -448 -249 -222 -87 -452 -146 -646 -166 -91 -9 -410 -9 -500 0 -239
25 -504 97 -720 196 -111 52 -271 140 -325 181 l-35 26 -413 2 c-342 1 -411
-1 -405 -12 12 -20 100 -111 184 -189 360 -335 805 -573 1289 -689 58 -14 121
-28 140 -31 19 -3 73 -12 120 -20 59 -10 181 -14 400 -15 306 -1 329 0 545 34
92 15 349 86 465 130 778 290 1395 895 1694 1663 68 175 138 432 161 592 3 25
8 56 10 70 14 82 19 190 19 385 1 215 -4 292 -28 445 l-11 75 -276 2 c-152 1
-279 0 -281 -3z"/>
<path d="M3382 2415 c2 -2 72 -74 156 -159 83 -85 153 -160 153 -165 1 -6 1
-20 1 -31 0 -11 0 -25 -1 -30 0 -6 -33 -43 -72 -83 l-70 -72 -532 -2 c-293 -2
-912 -4 -1377 -6 -465 -2 -856 -6 -870 -9 -103 -23 -202 -75 -278 -145 -46
-42 -322 -379 -322 -394 0 -3 773 -4 1718 -4 l1717 2 65 22 c83 29 154 70 205
118 37 34 325 390 434 535 51 68 71 127 65 193 -9 93 -59 166 -142 207 -47 23
-50 23 -450 24 -222 1 -402 0 -400 -1z"/>
</g>
</svg>
